<svg width="104" height="104" viewBox="0 0 104 104" fill="none" xmlns="http://www.w3.org/2000/svg">
<path d="M52.725 -5.26279e-06C23.48 -0.395005 -0.395005 23.48 -5.26279e-06 52.725C0.389995 80.7725 23.2275 103.61 51.275 104C80.525 104.4 104.395 80.525 103.995 51.28C103.61 23.2275 80.7725 0.389995 52.725 -5.26279e-06ZM48.5275 48.1175L61.415 33.3675C62.1132 32.5685 63.1002 32.0796 64.1588 32.0084C65.2174 31.9371 66.261 32.2893 67.06 32.9875C67.859 33.6857 68.3479 34.6727 68.4191 35.7313C68.4904 36.7899 68.1382 37.8335 67.44 38.6325L54.5525 53.3825C54.2068 53.7781 53.7866 54.1018 53.3158 54.3349C52.845 54.5681 52.3329 54.7063 51.8087 54.7416C51.2845 54.7769 50.7585 54.7086 50.2607 54.5406C49.7629 54.3726 49.3031 54.1082 48.9075 53.7625C48.5119 53.4168 48.1883 52.9966 47.9551 52.5258C47.7219 52.055 47.5837 51.5429 47.5484 51.0187C47.5131 50.4945 47.5814 49.9685 47.7494 49.4707C47.9174 48.9729 48.1818 48.5131 48.5275 48.1175ZM38.8125 70.83C38.0624 71.5796 37.0454 72.0006 35.985 72.0006C34.9246 72.0006 33.9076 71.5796 33.1575 70.83L21.17 58.83C20.7987 58.4584 20.5042 58.0172 20.3034 57.5318C20.1026 57.0463 19.9993 56.5261 19.9995 56.0007C19.9998 55.4754 20.1035 54.9552 20.3047 54.47C20.506 53.9847 20.8009 53.5438 21.1725 53.1725C21.5441 52.8012 21.9853 52.5067 22.4707 52.3059C22.9562 52.1051 23.4764 52.0018 24.0018 52.002C24.5271 52.0023 25.0473 52.106 25.5325 52.3072C26.0178 52.5085 26.4587 52.8034 26.83 53.175L38.83 65.175C39.5773 65.9274 39.9952 66.9457 39.9919 68.0061C39.9886 69.0665 39.5644 70.0823 38.8125 70.83ZM83.0125 38.6325L55.0425 70.6325C54.6821 71.0454 54.2408 71.3799 53.7458 71.6151C53.2508 71.8503 52.7127 71.9813 52.165 72H52.03C51.5044 72.0001 50.9839 71.8966 50.4983 71.6954C50.0127 71.4942 49.5715 71.1993 49.2 70.8275L37.215 58.8275C36.4651 58.0769 36.0441 57.0592 36.0445 55.9982C36.045 54.9372 36.4669 53.9199 37.2175 53.17C37.9681 52.4201 38.9858 51.9991 40.0468 51.9995C41.1078 52 42.1251 52.4219 42.875 53.1725L50.325 60.63C50.5187 60.8237 50.7501 60.9756 51.0049 61.0762C51.2596 61.1768 51.5324 61.224 51.8062 61.2149C52.0799 61.2057 52.3489 61.1404 52.5964 61.0231C52.8439 60.9057 53.0647 60.7387 53.245 60.5325L76.995 33.3675C77.6932 32.5685 78.6802 32.0796 79.7388 32.0084C80.7974 31.9371 81.841 32.2893 82.64 32.9875C83.439 33.6857 83.9279 34.6727 83.9991 35.7313C84.0704 36.7899 83.7182 37.8335 83.02 38.6325H83.0125Z" fill="#1BB43D"/>
</svg>
